# xmcd
#
# Track frame offsets:
#	150
#	16285
#	30837
#	41550
#	55725
#	67460
#	86542
#	102330
#	124787
#	147382
#
# Disc length: 2145 seconds
#
# Revision: 2
# Processed by: cddbd v1.5.1PL0 Copyright (c) Steve Scherf et al.
# Submitted via: EasyCDDAExtractor 8.2.1.1
#
DISCID=85085f0a
DTITLE=Tommy Emmanuel - From Out Of Nowhere
DYEAR=1990
DGENRE=Blues
TTITLE0=Limehouse Blues
TTITLE1=Dixie Breakdown
TTITLE2=Orange Mountain Special
TTITLE3=Steel Guitar Rag
TTITLE4=Roly Poly
TTITLE5=Out Of Nowhere
TTITLE6=Big Beaver
TTITLE7=String Of Pearls
TTITLE8=Canadian Sunset
TTITLE9=Dixie McGuire
EXTD=With Pee Wee Clark and Friends\n\nAn Album of Country Swing and Pickin'\nRe
EXTD=corded Direct To Disc
EXTT0=
EXTT1=
EXTT2=
EXTT3=
EXTT4=
EXTT5=
EXTT6=
EXTT7=
EXTT8=
EXTT9=
PLAYORDER=
